<svg width="69" height="69" viewBox="0 0 69 69" fill="none" xmlns="http://www.w3.org/2000/svg">
<circle cx="34.5" cy="34.5" r="33.5" fill="white" stroke="white" stroke-width="2"/>
<path d="M45.4834 40.205C45.9274 39.776 45.9274 39.062 45.4834 38.618C45.0544 38.189 44.3404 38.189 43.9124 38.618L35.8654 46.665L35.8654 20.111C35.8644 19.492 35.3724 19 34.7534 19C34.1344 19 33.6264 19.492 33.6264 20.111L33.6264 46.665L25.5944 38.618C25.1504 38.189 24.4354 38.189 24.0074 38.618C23.5634 39.062 23.5634 39.777 24.0074 40.205L33.9594 50.157C34.3884 50.601 35.1024 50.601 35.5304 50.157L45.4834 40.205Z" fill="black"/>
</svg>
